<svg width="14" height="18" viewBox="0 0 14 18" fill="none" xmlns="http://www.w3.org/2000/svg">
<path d="M0.00349515 6.59184C0.00349515 2.9499 3.00932 0 6.71417 0C10.419 0 13.4249 2.9499 13.4249 6.59184C13.4249 10.7616 9.22369 15.7596 7.46913 17.6645C7.0567 18.1118 6.36816 18.1118 5.95573 17.6645C4.20117 15.7596 0 10.7616 0 6.59184H0.00349515ZM6.71417 8.94757C7.30744 8.94757 7.8764 8.7119 8.2959 8.2924C8.7154 7.8729 8.95107 7.30394 8.95107 6.71068C8.95107 6.11742 8.7154 5.54846 8.2959 5.12896C7.8764 4.70946 7.30744 4.47379 6.71417 4.47379C6.12091 4.47379 5.55195 4.70946 5.13245 5.12896C4.71295 5.54846 4.47728 6.11742 4.47728 6.71068C4.47728 7.30394 4.71295 7.8729 5.13245 8.2924C5.55195 8.7119 6.12091 8.94757 6.71417 8.94757Z" fill="#797979"/>
</svg>
