<?xml version="1.0" encoding="UTF-8"?>
<svg id="Layer_1" data-name="Layer 1" xmlns="http://www.w3.org/2000/svg" viewBox="0 0 2000 1000">
  <path d="M109.85,778.62l104.08-80.67,93.62-71.21L952.44,132.73l71.21,71.71L112.84,867.27l-92.63-92.63L505.75,132.73l71.21,71.71-307.76,383.45c-15.27,18.6-42.33,51.04-81.17,97.36-38.84,46.31-64.91,77.44-78.18,93.37Z"/>
  <path d="M1132.71,309.52l-546.79,557.75-64.24-64.24L1191.48,132.73l82.67,82.67-258.95,475.58L1559.99,132.73l65.24,64.24-670.29,670.29-82.66-82.67,260.45-475.08Z"/>
  <path d="M1840.85,340.89l-525.88,526.37-68.72-68.22,526.37-526.37-78.68-78.68,61.25-61.25,224.59,224.59-61.25,61.25-77.69-77.69Z"/>
</svg>